<svg width="690" height="690" viewBox="0 0 690 690" fill="none" xmlns="http://www.w3.org/2000/svg">
<rect width="690" height="690" rx="160" fill="url(#paint0_linear_1637_88)"/>
<g clip-path="url(#clip0_1637_88)">
<path d="M350.44 235.25C350.77 231.53 350.83 227.39 351.53 223.25C352.69 216.37 356.28 211.51 361.95 207.59C392.75 186.33 423.39 164.83 453.28 142.28C466.44 132.34 480.1 135.48 492.59 142.86C519.13 158.55 536.05 182.19 544.45 211.63C547.66 222.89 548.93 234.63 543.18 245.93C540.48 251.22 537.12 255.93 531.81 258.82C510.91 270 491.87 284 472.16 297C459.39 305.43 446.7 314 434.28 322.93C427.69 327.67 421.41 325.54 415.36 323.02C383.75 309.79 362.31 287.13 352.61 253.94C350.87 248 350.71 241.81 350.44 235.25ZM526.56 244C535.51 233.71 537 226.35 533 213.41C525.46 189.14 512.53 168.78 490.19 155.41C486.469 153.208 482.506 151.443 478.38 150.15C464.52 145.7 454.17 153.74 455.47 168.35C457.91 195.69 471.55 216.84 492.71 233.47C497.18 236.98 502.18 240.2 509.24 240.88C506.06 236.88 503.57 233.81 501.06 230.72C489.68 216.72 479.31 202.13 473.35 184.86C471.543 179.489 470.417 173.912 470 168.26C469.84 166.41 469.33 163.97 469.37 162.87C469.45 159.87 469.37 158.6 470.37 157.18C471.37 155.76 474.29 157.65 476.18 158.53C479.835 160.111 483.18 162.329 486.06 165.08C488.06 167.02 489.62 169.53 491.9 170.94C502.33 177.38 508.33 187.67 514.6 197.45C523.33 211.05 529 225.87 526.56 244ZM436.18 178.34C436.44 182.85 433.35 184.34 430.64 186.26C412.307 198.96 393.99 211.673 375.69 224.4C372.862 226.18 370.47 228.572 368.69 231.4C367.75 233.03 366.11 234.87 367.74 236.83C369.37 238.79 371.43 237.83 373.21 236.93C376.695 235.368 380.07 233.571 383.31 231.55C401.64 219.17 419.84 206.55 438.15 194.19C440.15 192.86 440.57 191.47 440.34 189.19C440 185.39 437.91 182.25 436.18 178.34Z" fill="url(#paint1_linear_1637_88)"/>
<path d="M278.47 332.56C281.102 332.054 283.594 330.99 285.78 329.44C307.387 314.027 329.027 298.657 350.7 283.33C355.84 279.69 355.82 279.74 359.2 284.99C368.12 298.87 378.9 310.99 393.08 319.68C396.95 322.06 395.42 323.18 392.74 324.96C374.58 336.96 356.34 348.9 338.4 361.26C318.96 374.66 299.83 388.51 280.55 402.14C277.7 404.14 274.86 406.2 271.88 408.01C270.31 409.01 268.53 411.55 266.69 408.01C266.1 406.89 265.31 407.93 264.81 408.51C261.22 412.64 256.66 412.31 251.94 411.35C223.44 405.5 207.34 376.35 213.6 351.92C215.154 344.971 219.397 338.92 225.4 335.09C247.09 320.26 268.54 305.09 290.14 290.09C294.41 287.09 299.33 285 303.29 281.7C311.66 274.7 320.94 269.08 329.82 262.86C334.04 259.86 338.28 256.97 342.41 253.86C344.29 252.46 345.24 252.05 346.09 254.86C347.426 259.132 348.985 263.331 350.76 267.44C351.76 269.8 350.94 271 349.04 272.34C332.04 284.34 315.13 296.34 298.13 308.34C291.93 312.72 285.6 316.93 279.29 321.15C277.126 322.418 275.354 324.259 274.17 326.47C272.55 330 274.32 332.59 278.47 332.56Z" fill="url(#paint2_linear_1637_88)"/>
<path d="M353.84 449.84V492.56C353.84 511.22 353.77 529.88 353.97 548.56C353.97 552.94 352.47 554.62 348.18 554.45C343.89 554.28 339.51 554.39 335.18 554.52C331.18 554.64 329.55 552.83 329.57 548.79C329.71 521.63 329.73 494.47 329.79 467.31C329.79 461.41 329.79 455.52 329.79 449.63L328.49 449.36C325.72 454.36 322.86 459.3 320.22 464.36C306.11 491.47 291.88 518.53 278.11 545.81C274.82 552.33 270.81 555.6 263.42 554.58C260.14 554.13 256.76 554.58 253.42 554.39C248.71 554.15 247.76 552.69 249.91 548.39C256.53 535.17 263.28 522 270.03 508.85C282.177 485.197 294.363 461.57 306.59 437.97C308.11 435.05 308.59 431.29 312.66 430.08C314.43 429.56 312.09 428.41 312.31 427.25C312.654 424.996 313.781 422.935 315.492 421.429C317.204 419.922 319.391 419.066 321.67 419.01C335 418.81 348.33 418.82 361.67 418.89C368.42 418.89 370.07 424.79 372.5 429.29C377.63 438.82 382.33 448.59 387.22 458.29C402.413 488.377 417.597 518.473 432.77 548.58C434.89 552.79 433.97 554.2 429.12 554.4C425.29 554.56 421.4 554.06 417.63 554.58C411.32 555.45 407.95 552.58 405.2 547.21C389.27 515.78 373.08 484.48 356.97 453.14C356.37 451.97 355.68 450.85 355.03 449.71L353.84 449.84Z" fill="url(#paint3_linear_1637_88)"/>
<path d="M370.94 377.72C371.52 387.92 366.94 396.45 360.03 403.82C356.13 407.99 350.57 409.15 345.03 409.66C334.59 410.61 320.39 402.44 316.25 393.25C315.12 390.75 317.1 390 318.52 389.01C330.66 380.59 342.84 372.22 354.98 363.79C357.84 361.79 360.65 359.79 363.39 357.58C365.18 356.18 366.04 356.46 367.06 358.53C369.959 364.494 371.295 371.098 370.94 377.72Z" fill="url(#paint4_linear_1637_88)"/>
<path d="M162 448.66C155.61 448.36 148.16 443.35 144.11 434.07C140.06 424.79 141.84 416 148.51 408.56C158.23 397.72 172.22 399.37 181.31 411.25C184.78 415.78 188.43 419.99 188.82 425.72C189.74 439.24 180.06 448.76 162 448.66Z" fill="url(#paint5_linear_1637_88)"/>
<path d="M209.77 381.68C213.5 388.63 216.7 395.98 222.58 401.57C223.58 402.57 222.79 403.24 221.85 403.84C214.27 408.62 206.68 413.39 199.16 418.28C197.61 419.28 196.81 418.58 195.76 417.64C190.86 413.27 187.69 407.56 183.92 402.32C182.73 400.67 184.06 400.11 185.18 399.32C193.29 393.54 201.38 387.71 209.77 381.68Z" fill="url(#paint6_linear_1637_88)"/>
<path d="M235.69 219.1C239.3 245.29 253.55 259.6 279.88 261.98C269.31 265.98 257.94 266.87 249.52 274.78C240.88 282.88 239.23 294.12 235.28 305.24C232.55 279.24 218.05 265.45 192 262.38C217.62 258.65 232.81 245.51 235.69 219.1Z" fill="url(#paint7_linear_1637_88)"/>
<path d="M308.75 241.93C305.93 225.54 296.98 215.86 279.88 213.56C296.12 210.47 307.03 202.85 308.88 185C311.58 202.15 321.43 210.81 338.16 213.38C321.69 216.35 312.67 226.19 308.75 241.93Z" fill="url(#paint8_linear_1637_88)"/>
<path d="M419.74 362.03C422.42 378.45 431.48 387.96 448.74 390.12C432.52 393.12 421.61 401.04 419.25 418.56C416.57 401.22 405.99 392.95 389.67 390.41C396.67 387.58 404.17 386.83 409.91 381.67C415.65 376.51 416.92 369.11 419.74 362.03Z" fill="url(#paint9_linear_1637_88)"/>
</g>
<defs>
<linearGradient id="paint0_linear_1637_88" x1="413.5" y1="172.5" x2="84" y2="631.5" gradientUnits="userSpaceOnUse">
<stop offset="0.399038" stop-color="white"/>
<stop offset="1" stop-color="#F2F2F2"/>
</linearGradient>
<linearGradient id="paint1_linear_1637_88" x1="203.5" y1="423.5" x2="535.006" y2="257.407" gradientUnits="userSpaceOnUse">
<stop stop-color="#C30AFF"/>
<stop offset="0.51" stop-color="#2E4FFF"/>
<stop offset="1" stop-color="#3895FF"/>
</linearGradient>
<linearGradient id="paint2_linear_1637_88" x1="203.5" y1="423.5" x2="535.006" y2="257.407" gradientUnits="userSpaceOnUse">
<stop stop-color="#C30AFF"/>
<stop offset="0.51" stop-color="#2E4FFF"/>
<stop offset="1" stop-color="#3895FF"/>
</linearGradient>
<linearGradient id="paint3_linear_1637_88" x1="203.5" y1="423.5" x2="535.006" y2="257.407" gradientUnits="userSpaceOnUse">
<stop stop-color="#C30AFF"/>
<stop offset="0.51" stop-color="#2E4FFF"/>
<stop offset="1" stop-color="#3895FF"/>
</linearGradient>
<linearGradient id="paint4_linear_1637_88" x1="203.5" y1="423.5" x2="535.006" y2="257.407" gradientUnits="userSpaceOnUse">
<stop stop-color="#C30AFF"/>
<stop offset="0.51" stop-color="#2E4FFF"/>
<stop offset="1" stop-color="#3895FF"/>
</linearGradient>
<linearGradient id="paint5_linear_1637_88" x1="203.5" y1="423.5" x2="535.006" y2="257.407" gradientUnits="userSpaceOnUse">
<stop stop-color="#C30AFF"/>
<stop offset="0.51" stop-color="#2E4FFF"/>
<stop offset="1" stop-color="#3895FF"/>
</linearGradient>
<linearGradient id="paint6_linear_1637_88" x1="203.5" y1="423.5" x2="535.006" y2="257.407" gradientUnits="userSpaceOnUse">
<stop stop-color="#C30AFF"/>
<stop offset="0.51" stop-color="#2E4FFF"/>
<stop offset="1" stop-color="#3895FF"/>
</linearGradient>
<linearGradient id="paint7_linear_1637_88" x1="206.5" y1="400.5" x2="452.24" y2="253.49" gradientUnits="userSpaceOnUse">
<stop stop-color="#C30AFF"/>
<stop offset="0.51" stop-color="#2E4FFF"/>
<stop offset="1" stop-color="#3895FF"/>
</linearGradient>
<linearGradient id="paint8_linear_1637_88" x1="206.5" y1="400.5" x2="452.24" y2="253.49" gradientUnits="userSpaceOnUse">
<stop stop-color="#C30AFF"/>
<stop offset="0.51" stop-color="#2E4FFF"/>
<stop offset="1" stop-color="#3895FF"/>
</linearGradient>
<linearGradient id="paint9_linear_1637_88" x1="206.5" y1="400.5" x2="452.24" y2="253.49" gradientUnits="userSpaceOnUse">
<stop stop-color="#C30AFF"/>
<stop offset="0.51" stop-color="#2E4FFF"/>
<stop offset="1" stop-color="#3895FF"/>
</linearGradient>
<clipPath id="clip0_1637_88">
<rect width="405.17" height="418.75" fill="white" transform="translate(142 136)"/>
</clipPath>
</defs>
</svg>
